<?xml version="1.0" encoding="UTF-8" standalone="no"?>
<!DOCTYPE svg PUBLIC "-//W3C//DTD SVG 1.1//EN" "http://www.w3.org/Graphics/SVG/1.1/DTD/svg11.dtd">
<svg width="100%" height="100%" viewBox="0 0 26 26" version="1.1" xmlns="http://www.w3.org/2000/svg" xmlns:xlink="http://www.w3.org/1999/xlink" xml:space="preserve" xmlns:serif="http://www.serif.com/" style="fill-rule:evenodd;clip-rule:evenodd;stroke-linejoin:round;stroke-miterlimit:2;">
    <g>
        <g transform="matrix(0.300613,0,0,0.300613,-2.25613,-2.03067)">
            <path d="M78.5,33C72.191,33 67,27.809 67,21.5C67,15.191 72.191,10 78.5,10C84.809,10 90,15.191 90,21.5C89.993,27.806 84.806,32.993 78.5,33ZM78.5,14C74.386,14 71,17.386 71,21.5C71,25.614 74.386,29 78.5,29C82.614,29 86,25.614 86,21.5C85.996,17.387 82.613,14.004 78.5,14Z" style="fill-rule:nonzero;"/>
        </g>
        <g transform="matrix(0.300613,0,0,0.300613,-2.25613,-2.03067)">
            <path d="M35.5,90C31.934,90 29,87.066 29,83.5C29,79.934 31.934,77 35.5,77C39.066,77 42,79.934 42,83.5C41.996,87.064 39.064,89.996 35.5,90ZM35.5,81C34.129,81 33,82.129 33,83.5C33,84.871 34.129,86 35.5,86C36.871,86 38,84.871 38,83.5C37.999,82.129 36.871,81.001 35.5,81Z" style="fill-rule:nonzero;"/>
        </g>
        <g transform="matrix(0.300613,0,0,0.300613,-2.25613,-2.03067)">
            <path d="M65.5,90C51.237,90 39.5,78.263 39.5,64C39.5,49.737 51.237,38 65.5,38C79.763,38 91.5,49.737 91.5,64C91.484,78.257 79.757,89.984 65.5,90ZM65.5,42C53.431,42 43.5,51.931 43.5,64C43.5,76.069 53.431,86 65.5,86C77.569,86 87.5,76.069 87.5,64C87.486,51.936 77.564,42.014 65.5,42Z" style="fill-rule:nonzero;"/>
        </g>
        <g transform="matrix(0.300613,0,0,0.300613,-2.25613,-2.03067)">
            <path d="M33,42C24.223,42 17,34.777 17,26C17,17.223 24.223,10 33,10C41.777,10 49,17.223 49,26C48.99,34.774 41.774,41.99 33,42ZM33,14C26.417,14 21,19.417 21,26C21,32.583 26.417,38 33,38C39.583,38 45,32.583 45,26C44.993,19.42 39.58,14.007 33,14Z" style="fill-rule:nonzero;"/>
        </g>
        <g transform="matrix(0.300613,0,0,0.300613,-2.25613,-2.03067)">
            <path d="M51.878,65.352C50.781,65.352 49.878,64.449 49.878,63.352C49.887,55.141 56.641,48.387 64.852,48.378C65.949,48.378 66.852,49.281 66.852,50.378C66.852,51.475 65.949,52.378 64.852,52.378C58.834,52.385 53.885,57.334 53.878,63.352C53.878,64.449 52.975,65.352 51.878,65.352Z" style="fill-rule:nonzero;"/>
        </g>
        <g transform="matrix(0.300613,0,0,0.300613,-2.25613,-2.03067)">
            <path d="M26.538,28C25.441,28 24.538,27.097 24.538,26C24.543,21.36 28.36,17.543 33,17.538C34.097,17.538 35,18.441 35,19.538C35,20.635 34.097,21.538 33,21.538C30.553,21.541 28.541,23.553 28.538,26C28.538,27.097 27.635,28 26.538,28Z" style="fill-rule:nonzero;"/>
        </g>
        <g transform="matrix(0.300613,0,0,0.300613,-2.25613,-2.03067)">
            <path d="M75,24C73.903,24 73,23.097 73,22C73.004,18.71 75.71,16.004 79,16C80.097,16 81,16.903 81,18C81,19.097 80.097,20 79,20C77.903,20.001 77.001,20.903 77,22C77,23.097 76.097,24 75,24Z" style="fill-rule:nonzero;"/>
        </g>
        <g transform="matrix(0.300613,0,0,0.300613,-2.25613,-2.03067)">
            <path d="M21.5,74C15.191,74 10,68.809 10,62.5C10,56.191 15.191,51 21.5,51C27.809,51 33,56.191 33,62.5C32.993,68.806 27.806,73.993 21.5,74ZM21.5,55C17.386,55 14,58.386 14,62.5C14,66.614 17.386,70 21.5,70C25.614,70 29,66.614 29,62.5C28.996,58.387 25.613,55.004 21.5,55Z" style="fill-rule:nonzero;"/>
        </g>
        <g transform="matrix(0.300613,0,0,0.300613,-2.25613,-2.03067)">
            <path d="M18,65C16.903,65 16,64.097 16,63C16.004,59.71 18.71,57.004 22,57C23.097,57 24,57.903 24,59C24,60.097 23.097,61 22,61C20.903,61.001 20.001,61.903 20,63C20,64.097 19.097,65 18,65Z" style="fill-rule:nonzero;"/>
        </g>
    </g>
</svg>
