<?xml version="1.0" encoding="UTF-8" standalone="no"?>
<!DOCTYPE svg PUBLIC "-//W3C//DTD SVG 1.1//EN" "http://www.w3.org/Graphics/SVG/1.1/DTD/svg11.dtd">
<svg width="100%" height="100%" viewBox="0 0 26 26" version="1.1" xmlns="http://www.w3.org/2000/svg" xmlns:xlink="http://www.w3.org/1999/xlink" xml:space="preserve" xmlns:serif="http://www.serif.com/" style="fill-rule:evenodd;clip-rule:evenodd;stroke-linejoin:round;stroke-miterlimit:2;">
    <g>
        <g transform="matrix(0.468087,0,0,0.468087,-10.4044,-10.3014)">
            <path d="M60.766,32.539C60.766,31.406 60.051,30.473 58.895,29.734C58.282,29.344 57.543,29.008 56.715,28.734C54.789,28.094 52.391,27.766 50,27.766C47.61,27.766 45.211,28.094 43.282,28.738C42.453,29.016 41.715,29.348 41.102,29.738C39.946,30.473 39.231,31.41 39.231,32.543C39.231,35.68 44.649,37.316 50.001,37.316C55.352,37.312 60.767,35.676 60.767,32.539L60.766,32.539ZM50,29.766C55.27,29.766 58.77,31.438 58.77,32.539C58.77,33.645 55.273,35.312 50,35.312C44.731,35.312 41.231,33.641 41.231,32.539C41.231,31.434 44.731,29.766 50,29.766Z" style="fill-rule:nonzero;"/>
        </g>
        <g transform="matrix(0.468087,0,0,0.468087,-10.4044,-10.3014)">
            <path d="M73.66,60.145C73.324,59.922 72.988,59.735 72.66,59.586L72.66,67.008C72.66,68.782 71.027,70.356 68.429,71.637L68.426,59.317C68.058,59.427 67.722,59.555 67.426,59.692C67.015,59.88 66.672,60.083 66.426,60.247L66.426,72.505C64.918,73.071 63.211,73.56 61.383,73.958L61.383,41.575C63.215,41.192 64.906,40.716 66.426,40.165L66.426,43.856C66.75,43.743 67.082,43.645 67.426,43.555C67.75,43.473 68.082,43.403 68.426,43.344L68.426,39.348C70.176,38.544 71.609,37.622 72.656,36.61L72.656,43.462C72.988,43.536 73.32,43.634 73.656,43.747C73.988,43.856 74.32,43.989 74.656,44.137L74.66,32.903C74.66,32.857 74.648,32.814 74.644,32.771C74.648,32.696 74.66,32.618 74.66,32.544C74.66,26.857 63.828,22.399 50,22.399C36.172,22.395 25.34,26.852 25.34,32.54C25.34,32.614 25.352,32.692 25.356,32.767C25.356,32.814 25.34,32.856 25.34,32.899L25.34,44.133C25.676,43.985 26.008,43.852 26.34,43.743C26.676,43.63 27.008,43.536 27.34,43.458L27.34,36.606C28.317,37.547 29.625,38.407 31.207,39.169L31.207,43.278C31.547,43.325 31.883,43.383 32.207,43.458C32.551,43.536 32.883,43.626 33.207,43.727L33.207,40.028C34.719,40.602 36.41,41.094 38.25,41.497L38.25,73.872C36.41,73.458 34.703,72.946 33.207,72.36L33.207,60.024C32.93,59.864 32.594,59.692 32.207,59.54C31.903,59.419 31.567,59.305 31.207,59.223L31.207,71.457C28.824,70.211 27.34,68.703 27.34,67.016L27.34,59.598C27.012,59.746 26.676,59.926 26.34,60.149C26.121,60.293 25.899,60.449 25.676,60.629C25.563,60.723 25.453,60.793 25.34,60.883L25.34,67.016C25.34,72.703 36.172,77.161 50,77.161C63.828,77.161 74.66,72.704 74.66,67.016L74.66,60.883C74.547,60.797 74.437,60.723 74.324,60.633C74.101,60.446 73.879,60.289 73.66,60.145L73.66,60.145ZM47.297,75.086L47.297,42.625C48.184,42.664 49.086,42.684 50,42.684C50.789,42.684 51.57,42.668 52.34,42.637L52.34,75.102C51.559,75.137 50.773,75.156 50,75.156C49.106,75.156 48.199,75.129 47.297,75.086ZM27.356,32.742C27.352,32.676 27.34,32.605 27.34,32.539C27.34,31.148 28.344,29.883 30.028,28.785C30.59,28.418 31.231,28.066 31.938,27.738C36.395,25.656 43.426,24.398 50,24.398C56.574,24.398 63.605,25.66 68.062,27.738C68.769,28.066 69.41,28.418 69.972,28.785C71.656,29.887 72.66,31.152 72.66,32.539C72.66,32.609 72.648,32.676 72.644,32.742C72.308,37.433 60.562,40.683 49.999,40.683C39.436,40.683 27.69,37.433 27.354,32.742L27.356,32.742ZM59.383,74.344C57.75,74.629 56.051,74.84 54.34,74.981L54.34,42.532C56.098,42.411 57.785,42.211 59.383,41.95L59.383,74.344ZM40.254,41.887C41.852,42.16 43.539,42.371 45.297,42.504L45.297,74.945C43.578,74.797 41.883,74.574 40.254,74.277L40.254,41.887Z" style="fill-rule:nonzero;"/>
        </g>
        <g transform="matrix(1.54108,0,0,1.54108,-7.03861,-7.03409)">
            <rect x="5.513" y="11" width="0.609" height="6"/>
        </g>
        <g transform="matrix(1.54108,0,0,1.54108,-4.28818,-7.03409)">
            <rect x="5.513" y="11" width="0.609" height="6"/>
        </g>
        <g transform="matrix(1.54108,0,0,1.54108,12.1932,-7.59905)">
            <rect x="5.513" y="11" width="0.609" height="6"/>
        </g>
        <g transform="matrix(1.54108,0,0,1.54108,15.1068,-7.62813)">
            <rect x="5.513" y="11" width="0.609" height="6"/>
        </g>
    </g>
</svg>
