<?xml version="1.0" encoding="UTF-8" standalone="no"?>
<!DOCTYPE svg PUBLIC "-//W3C//DTD SVG 1.1//EN" "http://www.w3.org/Graphics/SVG/1.1/DTD/svg11.dtd">
<svg width="100%" height="100%" viewBox="0 0 26 26" version="1.1" xmlns="http://www.w3.org/2000/svg" xmlns:xlink="http://www.w3.org/1999/xlink" xml:space="preserve" xmlns:serif="http://www.serif.com/" style="fill-rule:evenodd;clip-rule:evenodd;stroke-linejoin:round;stroke-miterlimit:2;">
    <g transform="matrix(0.274554,0,0,0.274554,2.9435,-0.810045)">
        <path d="M53,32.4C52.9,32.3 52.8,32.4 52.7,32.4C52.6,32.5 52.6,32.6 52.6,32.7C54.9,39.4 49.1,45.8 46.7,48.2C49.9,42.1 50.5,35.9 48.7,29.9C46.3,22.1 40.2,15.9 35.4,12C30.2,7.8 25.6,5.5 25.5,5.5L25.2,5.5C25.1,5.6 25.1,5.7 25.2,5.8C32.7,20.3 27.5,25.4 20.2,32.5C14.6,37.8 7.6,44.7 5.5,58.3C3.8,69.9 7,79.3 15,86.2C22.4,92.6 31.3,94.6 33.8,95.1L33.9,95.1C34.1,95 34.2,94.8 34.2,94.7C34.2,94.4 34,94.2 33.9,94.2L33.8,94.2C28.1,92.8 18.7,88.8 18.3,78.5C19.8,79.5 25.1,82.7 29.5,82.8C29.6,82.8 29.7,82.7 29.7,82.6C29.7,82.5 29.7,82.4 29.6,82.3C29.5,82.2 21.1,74.8 21.2,64.7C21.3,58.5 24.5,52.6 30.8,47.1C31,49.6 31.9,60.7 37.4,66.9C43.4,73.8 46.2,72.6 46.3,72.5C46.3,72.5 50.4,71.5 50.7,67.7C51.9,70.1 54.8,77 52.5,83.4C50.8,88.1 46.7,91.6 40.4,93.9C40,94.3 40,94.6 40,94.7C40.1,95 40.5,95.1 41,95.1C54.5,93 68.2,80.9 68.2,61.9C68.2,42.1 53.2,32.5 53,32.4Z" style="fill-rule:nonzero;"/>
    </g>
</svg>
