<?xml version="1.0" encoding="UTF-8" standalone="no"?>
<!DOCTYPE svg PUBLIC "-//W3C//DTD SVG 1.1//EN" "http://www.w3.org/Graphics/SVG/1.1/DTD/svg11.dtd">
<svg width="100%" height="100%" viewBox="0 0 26 26" version="1.1" xmlns="http://www.w3.org/2000/svg" xmlns:xlink="http://www.w3.org/1999/xlink" xml:space="preserve" xmlns:serif="http://www.serif.com/" style="fill-rule:evenodd;clip-rule:evenodd;stroke-linejoin:round;stroke-miterlimit:2;">
    <g transform="matrix(0.333368,0,0,0.333368,-3.668,-3.66772)">
        <path d="M50,58.332C47.699,58.332 45.832,56.469 45.832,54.164L45.832,16.664C45.832,14.363 47.699,12.496 50,12.496C52.301,12.496 54.168,14.363 54.168,16.664L54.168,54.164C54.168,56.469 52.301,58.332 50,58.332ZM83.332,54.168C83.332,43.273 77.992,33.051 69.051,26.813C67.156,25.489 64.563,25.957 63.25,27.848C61.938,29.735 62.395,32.333 64.285,33.649C70.992,38.325 75,45.997 75,54.169C75,67.954 63.785,79.169 50,79.169C36.215,79.169 25,67.954 25,54.169C25,46.001 29.008,38.329 35.715,33.649C37.602,32.333 38.067,29.735 36.751,27.848C35.438,25.965 32.84,25.493 30.95,26.813C22.004,33.051 16.665,43.278 16.665,54.168C16.669,72.547 31.622,87.5 50.001,87.5C68.38,87.5 83.333,72.547 83.333,54.168L83.332,54.168Z" style="fill-rule:nonzero;"/>
    </g>
</svg>
