<?xml version="1.0" encoding="UTF-8" standalone="no"?>
<!DOCTYPE svg PUBLIC "-//W3C//DTD SVG 1.1//EN" "http://www.w3.org/Graphics/SVG/1.1/DTD/svg11.dtd">
<svg width="100%" height="100%" viewBox="0 0 26 26" version="1.1" xmlns="http://www.w3.org/2000/svg" xmlns:xlink="http://www.w3.org/1999/xlink" xml:space="preserve" xmlns:serif="http://www.serif.com/" style="fill-rule:evenodd;clip-rule:evenodd;stroke-linejoin:round;stroke-miterlimit:2;">
    <g transform="matrix(0.274554,0,0,0.274554,2.9435,-0.810045)">
        <g transform="matrix(2.25474,0,0,2.25474,-17.5303,-3.74617)">
            <path d="M29.21,18.8C28.71,18.64 28.32,18.41 27.87,18.14C26.98,17.6 25.97,17 24.03,17C22.09,17 21.08,17.61 20.18,18.14C19.38,18.62 18.75,19 17.36,19C15.97,19 15.34,18.62 14.54,18.14C13.65,17.6 12.64,17 10.69,17C8.74,17 7.73,17.61 6.84,18.14C6.04,18.62 5.41,19 4.02,19C3.47,19 3.02,19.45 3.02,20C3.02,20.55 3.47,21 4.02,21C5.96,21 6.98,20.39 7.87,19.86C8.67,19.38 9.3,19 10.69,19C12.08,19 12.71,19.38 13.51,19.86C14.4,20.4 15.41,21 17.36,21C19.31,21 20.31,20.39 21.21,19.86C22.01,19.38 22.64,19 24.03,19C25.42,19 26.05,19.38 26.84,19.86C27.33,20.15 27.88,20.49 28.62,20.71C29.16,20.88 29.71,20.58 29.87,20.05C30.03,19.52 29.74,18.96 29.21,18.8Z" style="fill-rule:nonzero;"/>
        </g>
        <g transform="matrix(2.25474,0,0,2.25474,-17.5303,-3.74617)">
            <path d="M29.21,25.8C28.71,25.64 28.32,25.41 27.87,25.14C26.98,24.6 25.97,24 24.03,24C22.09,24 21.08,24.61 20.18,25.14C19.38,25.62 18.75,26 17.36,26C15.97,26 15.34,25.62 14.54,25.14C13.65,24.6 12.64,24 10.69,24C8.74,24 7.73,24.61 6.84,25.14C6.04,25.62 5.41,26 4.02,26C3.47,26 3.02,26.45 3.02,27C3.02,27.55 3.47,28 4.02,28C5.96,28 6.98,27.39 7.87,26.86C8.67,26.38 9.3,26 10.69,26C12.08,26 12.71,26.38 13.51,26.86C14.4,27.4 15.41,28 17.36,28C19.31,28 20.31,27.39 21.21,26.86C22.01,26.38 22.64,26 24.03,26C25.42,26 26.05,26.38 26.84,26.86C27.33,27.15 27.88,27.49 28.62,27.71C29.15,27.87 29.71,27.58 29.87,27.05C30.03,26.52 29.74,25.96 29.21,25.8Z" style="fill-rule:nonzero;"/>
        </g>
        <g transform="matrix(2.25474,0,0,2.25474,-17.5303,-3.74617)">
            <path d="M44,26C42.61,26 41.98,25.62 41.19,25.14C41.14,25.11 41.08,25.08 41.03,25.04L41.03,20.33C41.75,20.69 42.65,20.99 44.01,20.99C44.56,20.99 45.01,20.54 45.01,19.99C45.01,19.44 44.56,18.99 44.01,18.99C42.62,18.99 41.99,18.61 41.2,18.13C41.15,18.1 41.09,18.07 41.04,18.03L41.04,11.46C41.04,8.98 39.02,6.96 36.54,6.96C35.35,6.96 34.19,7.44 33.37,8.28C32.51,9.12 32.04,10.25 32.04,11.46L32.04,29.79C30.76,31.01 30.04,32.69 30.04,34.48C30.04,38.06 32.96,40.98 36.54,40.98C40.12,40.98 43.04,38.06 43.04,34.48C43.04,32.69 42.32,31.01 41.04,29.79L41.04,27.35C41.76,27.71 42.66,28.01 44.02,28.01C44.57,28.01 45.02,27.56 45.02,27.01C45.02,26.46 44.57,26.01 44.02,26.01L44,26ZM36.52,38.98C34.04,38.98 32.02,36.96 32.02,34.48C32.02,33.13 32.62,31.86 33.65,31.01L34.02,30.71L34.02,11.48C34.02,10.81 34.28,10.19 34.76,9.71C35.22,9.24 35.85,8.98 36.52,8.98C37.9,8.98 39.02,10.1 39.02,11.48L39.02,30.71L39.39,31.01C40.43,31.86 41.02,33.12 41.02,34.48C41.02,36.96 39,38.98 36.52,38.98Z" style="fill-rule:nonzero;"/>
        </g>
        <g transform="matrix(2.25474,0,0,2.25474,-17.5303,-3.74617)">
            <path d="M37.52,32.19L37.52,17.43C37.52,16.88 37.07,16.43 36.52,16.43C35.97,16.43 35.52,16.88 35.52,17.43L35.52,32.19C34.64,32.58 34.02,33.45 34.02,34.48C34.02,35.86 35.14,36.98 36.52,36.98C37.9,36.98 39.02,35.86 39.02,34.48C39.02,33.46 38.4,32.58 37.52,32.19Z" style="fill-rule:nonzero;"/>
        </g>
    </g>
</svg>
