<?xml version="1.0" encoding="UTF-8" standalone="no"?>
<!DOCTYPE svg PUBLIC "-//W3C//DTD SVG 1.1//EN" "http://www.w3.org/Graphics/SVG/1.1/DTD/svg11.dtd">
<svg width="100%" height="100%" viewBox="0 0 167 167" version="1.1" xmlns="http://www.w3.org/2000/svg" xmlns:xlink="http://www.w3.org/1999/xlink" xml:space="preserve" xmlns:serif="http://www.serif.com/" style="fill-rule:evenodd;clip-rule:evenodd;stroke-linejoin:round;stroke-miterlimit:2;">
    <g transform="matrix(4.16667,0,0,4.16667,0,0)">
        <g transform="matrix(1,0,0,1,-306,-306)">
            <g transform="matrix(0.0633333,0,0,0.0633333,305.733,305.562)">
                <path d="M588.4,276.2C588.4,267.3 595.7,260.7 604.2,260.7C612.7,260.7 620,267.3 620,276.2C620,285.2 612.7,291.8 604.2,291.8C595.7,291.9 588.4,285.3 588.4,276.2M604.2,289.3C611.3,289.3 616.8,283.8 616.8,276.3C616.8,268.9 611.2,263.4 604.2,263.4C597.1,263.4 591.5,269 591.5,276.3C591.5,283.7 597.1,289.3 604.2,289.3M600.9,285.3L598.2,285.3L598.2,267.3L605,267.3C609.3,267.3 611.4,268.9 611.4,272.4C611.4,275.6 609.4,277 606.7,277.3L611.8,285.2L608.7,285.2L604,277.4L600.9,277.4L600.9,285.3ZM604.2,275.2C606.5,275.2 608.6,275 608.6,272.3C608.6,270.1 606.6,269.7 604.7,269.7L601,269.7L601,275.3L604.2,275.3L604.2,275.2Z" style="fill:rgb(38,150,168);fill-rule:nonzero;"/>
            </g>
            <g transform="matrix(0.0633333,0,0,0.0633333,305.733,305.562)">
                <path d="M588.4,276.2C588.4,267.3 595.7,260.7 604.2,260.7C612.7,260.7 620,267.3 620,276.2C620,285.2 612.7,291.8 604.2,291.8C595.7,291.9 588.4,285.3 588.4,276.2M604.2,289.3C611.3,289.3 616.8,283.8 616.8,276.3C616.8,268.9 611.2,263.4 604.2,263.4C597.1,263.4 591.5,269 591.5,276.3C591.5,283.7 597.1,289.3 604.2,289.3M600.9,285.3L598.2,285.3L598.2,267.3L605,267.3C609.3,267.3 611.4,268.9 611.4,272.4C611.4,275.6 609.4,277 606.7,277.3L611.8,285.2L608.7,285.2L604,277.4L600.9,277.4L600.9,285.3ZM604.2,275.2C606.5,275.2 608.6,275 608.6,272.3C608.6,270.1 606.6,269.7 604.7,269.7L601,269.7L601,275.3L604.2,275.3L604.2,275.2Z" style="fill:rgb(38,150,168);fill-rule:nonzero;"/>
            </g>
        </g>
        <g transform="matrix(1,0,0,1,-306,-306)">
            <g transform="matrix(0.0633333,0,0,0.0633333,305.733,305.562)">
                <path d="M20,374.1L27.2,374.1C36.1,374.1 37.1,372.1 37.1,365.9L37.1,281.3C37.1,275.1 36.1,273.1 27.2,273.1L20,273.1L20,264.2L83.5,264.2L83.5,273.1L76.3,273.1C67.4,273.1 66.4,275.1 66.4,281.3L66.4,365.9C66.4,372.1 67.4,374.1 76.3,374.1L83.5,374.1L83.5,383L20,383L20,374.1" style="fill:white;fill-rule:nonzero;"/>
            </g>
            <g transform="matrix(0.0633333,0,0,0.0633333,305.733,305.562)">
                <path d="M88.9,264.2L131.3,264.2L195,339.9L195,293.7C195,278.4 192.2,273.8 176.9,273.1L176.9,264.2L224.3,264.2L224.3,273.1C209,273.8 206.2,278.4 206.2,293.7L206.2,384.7L195.5,384.7L118.5,292.1L118.2,292.1L118.2,353.6C118.2,368.9 121,373.5 136.3,374.2L136.3,383.1L88.9,383.1L88.9,374.2C104.2,373.5 107,368.9 107,353.6L107,282C102.9,276.1 96.5,273.1 88.9,273.1L88.9,264.2" style="fill:white;fill-rule:nonzero;"/>
            </g>
            <g transform="matrix(0.0633333,0,0,0.0633333,305.733,305.562)">
                <path d="M250.7,374.1L259.9,374.1C268.8,374.1 269.8,372.1 269.8,365.9L269.8,278.2C269.8,273.6 268.8,272.3 263.5,272.3C246.1,272.3 237.7,294 235.7,309L227.6,309L230.2,264.3L338.5,264.3L341.1,309L333,309C331,294 322.6,272.3 305.2,272.3C299.9,272.3 299,273.6 299,278.2L299,365.9C299,372.1 300,374.1 308.9,374.1L318.1,374.1L318.1,383L250.6,383L250.6,374.1" style="fill:white;fill-rule:nonzero;"/>
            </g>
            <g transform="matrix(0.0633333,0,0,0.0633333,305.733,305.562)">
                <path d="M346.7,374.1L353.9,374.1C362.8,374.1 363.8,372.1 363.8,365.9L363.8,281.3C363.8,275.1 362.8,273.1 353.9,273.1L346.7,273.1L346.7,264.2L457.1,264.2L458.3,307.3L450,307.3C442.9,283.3 434.7,273.1 408.4,273.1C395.7,273.1 393.1,275.4 393.1,284.8L393.1,316.9L396.2,316.9C409.7,316.9 417.4,307.5 419.1,293.2L427.7,293.2L428.4,350.9L419.2,350.9C418.7,335.8 409.2,325.7 395.2,325.7L393.2,325.7L393.2,363.4C393.2,372.4 394.5,374.1 411.5,374.1C435.2,374.1 445.1,362.6 452,338.6L460.2,339.3L458.4,383.1L346.7,383.1L346.7,374.1" style="fill:white;fill-rule:nonzero;"/>
            </g>
            <g transform="matrix(0.0633333,0,0,0.0633333,305.733,305.562)">
                <path d="M466.3,374.1C474.4,373.4 481.1,370.3 486,364.2L514.1,329.7L479,279.5C475.2,274.2 473.2,273.7 466.3,273.1L466.3,264.2L524.4,264.2L524.4,273.1L522.1,273.1C514.5,273.3 512.9,274.6 512.9,277C512.9,278.2 513.6,279.8 515.2,281.9L532.6,306.7C548.6,288.4 550.4,283.8 550.4,281.4C550.4,275.6 544.6,273 534.1,273L534.1,264.1L585,264.1L585,273C576.3,273.3 570.5,276.3 561.5,287.5L538.8,316L572,363.4C577.9,371.8 580.9,373.8 589.1,374.1L589.1,383L530,383L530,374.1L533.6,374.1C539.5,374.1 541.7,372.8 541.7,370.6C541.7,368.8 540.7,367.3 538.7,364.5L520.3,338C503.7,358.9 502.2,361 502.2,365.8C502.2,370.6 506.5,374 515.7,374L520.3,374L520.3,382.9L466.3,382.9L466.3,374.1" style="fill:white;fill-rule:nonzero;"/>
            </g>
            <g transform="matrix(0.0633333,0,0,0.0633333,305.733,305.562)">
                <path d="M20,374.1L27.2,374.1C36.1,374.1 37.1,372.1 37.1,365.9L37.1,281.3C37.1,275.1 36.1,273.1 27.2,273.1L20,273.1L20,264.2L83.5,264.2L83.5,273.1L76.3,273.1C67.4,273.1 66.4,275.1 66.4,281.3L66.4,365.9C66.4,372.1 67.4,374.1 76.3,374.1L83.5,374.1L83.5,383L20,383L20,374.1" style="fill:rgb(38,150,168);fill-rule:nonzero;"/>
            </g>
            <g transform="matrix(0.0633333,0,0,0.0633333,305.733,305.562)">
                <path d="M88.9,264.2L131.3,264.2L195,339.9L195,293.7C195,278.4 192.2,273.8 176.9,273.1L176.9,264.2L224.3,264.2L224.3,273.1C209,273.8 206.2,278.4 206.2,293.7L206.2,384.7L195.5,384.7L118.5,292.1L118.2,292.1L118.2,353.6C118.2,368.9 121,373.5 136.3,374.2L136.3,383.1L88.9,383.1L88.9,374.2C104.2,373.5 107,368.9 107,353.6L107,282C102.9,276.1 96.5,273.1 88.9,273.1L88.9,264.2" style="fill:rgb(38,150,168);fill-rule:nonzero;"/>
            </g>
            <g transform="matrix(0.0633333,0,0,0.0633333,305.733,305.562)">
                <path d="M250.7,374.1L259.9,374.1C268.8,374.1 269.8,372.1 269.8,365.9L269.8,278.2C269.8,273.6 268.8,272.3 263.5,272.3C246.1,272.3 237.7,294 235.7,309L227.6,309L230.2,264.3L338.5,264.3L341.1,309L333,309C331,294 322.6,272.3 305.2,272.3C299.9,272.3 299,273.6 299,278.2L299,365.9C299,372.1 300,374.1 308.9,374.1L318.1,374.1L318.1,383L250.6,383L250.6,374.1" style="fill:rgb(38,150,168);fill-rule:nonzero;"/>
            </g>
            <g transform="matrix(0.0633333,0,0,0.0633333,305.733,305.562)">
                <path d="M346.7,374.1L353.9,374.1C362.8,374.1 363.8,372.1 363.8,365.9L363.8,281.3C363.8,275.1 362.8,273.1 353.9,273.1L346.7,273.1L346.7,264.2L457.1,264.2L458.3,307.3L450,307.3C442.9,283.3 434.7,273.1 408.4,273.1C395.7,273.1 393.1,275.4 393.1,284.8L393.1,316.9L396.2,316.9C409.7,316.9 417.4,307.5 419.1,293.2L427.7,293.2L428.4,350.9L419.2,350.9C418.7,335.8 409.2,325.7 395.2,325.7L393.2,325.7L393.2,363.4C393.2,372.4 394.5,374.1 411.5,374.1C435.2,374.1 445.1,362.6 452,338.6L460.2,339.3L458.4,383.1L346.7,383.1L346.7,374.1" style="fill:rgb(38,150,168);fill-rule:nonzero;"/>
            </g>
            <g transform="matrix(0.0633333,0,0,0.0633333,305.733,305.562)">
                <path d="M466.3,374.1C474.4,373.4 481.1,370.3 486,364.2L514.1,329.7L479,279.5C475.2,274.2 473.2,273.7 466.3,273.1L466.3,264.2L524.4,264.2L524.4,273.1L522.1,273.1C514.5,273.3 512.9,274.6 512.9,277C512.9,278.2 513.6,279.8 515.2,281.9L532.6,306.7C548.6,288.4 550.4,283.8 550.4,281.4C550.4,275.6 544.6,273 534.1,273L534.1,264.1L585,264.1L585,273C576.3,273.3 570.5,276.3 561.5,287.5L538.8,316L572,363.4C577.9,371.8 580.9,373.8 589.1,374.1L589.1,383L530,383L530,374.1L533.6,374.1C539.5,374.1 541.7,372.8 541.7,370.6C541.7,368.8 540.7,367.3 538.7,364.5L520.3,338C503.7,358.9 502.2,361 502.2,365.8C502.2,370.6 506.5,374 515.7,374L520.3,374L520.3,382.9L466.3,382.9L466.3,374.1" style="fill:rgb(38,150,168);fill-rule:nonzero;"/>
            </g>
        </g>
    </g>
</svg>
