<?xml version="1.0" encoding="UTF-8" standalone="no"?>
<!DOCTYPE svg PUBLIC "-//W3C//DTD SVG 1.1//EN" "http://www.w3.org/Graphics/SVG/1.1/DTD/svg11.dtd">
<svg width="100%" height="100%" viewBox="0 0 40 40" version="1.1" xmlns="http://www.w3.org/2000/svg" xmlns:xlink="http://www.w3.org/1999/xlink" xml:space="preserve" xmlns:serif="http://www.serif.com/" style="fill-rule:evenodd;clip-rule:evenodd;stroke-linejoin:round;stroke-miterlimit:2;">
    <g id="Plan-de-travail1" serif:id="Plan de travail1" transform="matrix(1,0,0,1.02564,0,-1.02564)">
        <rect x="0" y="1" width="40" height="39" style="fill:none;"/>
        <g transform="matrix(1,0,0,0.975,0,1)">
            <path d="M8.09,11C8.101,12.048 8.573,13.04 9.38,13.71C9.87,14.2 10.09,14.44 10.09,15C10.09,15.549 10.541,16 11.09,16C11.639,16 12.09,15.549 12.09,15C12.075,13.95 11.599,12.958 10.79,12.29C10.3,11.8 10.09,11.56 10.09,11C10.09,10.44 10.3,10.2 10.79,9.71C11.599,9.042 12.075,8.05 12.09,7C12.075,5.95 11.599,4.958 10.79,4.29C10.3,3.8 10.09,3.56 10.09,3C10.09,2.451 9.639,2 9.09,2C8.541,2 8.09,2.451 8.09,3C8.101,4.048 8.573,5.04 9.38,5.71C9.87,6.2 10.09,6.44 10.09,7C10.09,7.56 9.87,7.8 9.38,8.29C8.573,8.96 8.101,9.952 8.09,11Z" style="fill-rule:nonzero;"/>
        </g>
        <g transform="matrix(1,0,0,0.975,0,1)">
            <path d="M13,11C13.015,12.047 13.486,13.038 14.29,13.71C14.78,14.2 15,14.44 15,15C15,15.549 15.451,16 16,16C16.549,16 17,15.549 17,15C16.985,13.953 16.514,12.962 15.71,12.29C15.22,11.8 15,11.56 15,11C15,10.44 15.22,10.2 15.71,9.71C16.514,9.038 16.985,8.047 17,7C16.985,5.953 16.514,4.962 15.71,4.29C15.22,3.8 15,3.56 15,3C15,2.451 14.549,2 14,2C13.451,2 13,2.451 13,3C13.015,4.047 13.486,5.038 14.29,5.71C14.78,6.2 15,6.44 15,7C15,7.56 14.78,7.8 14.29,8.29C13.486,8.962 13.015,9.953 13,11Z" style="fill-rule:nonzero;"/>
        </g>
        <g transform="matrix(1,0,0,0.975,0,1)">
            <path d="M34,17L32,17C32,15.903 31.097,15 30,15L25,15C23.903,15 23,15.903 23,17L6,17C3.821,17.022 2.041,18.821 2.041,21C2.041,22.41 2.787,23.72 4,24.44L4,33C4,35.743 6.257,38 9,38L31,38C33.743,38 36,35.743 36,33L36,24.44C37.213,23.72 37.959,22.41 37.959,21C37.959,18.821 36.179,17.022 34,17ZM25,17L30,17L30,26L25,26L25,17ZM6,19L23,19L23,23L6,23C4.903,23 4,22.097 4,21C4,19.903 4.903,19 6,19ZM6,33L6,25L13,25L13,36L9,36C7.354,36 6,34.646 6,33ZM34,33C34,34.646 32.646,36 31,36L27,36L27,31C27,30.451 26.549,30 26,30C25.451,30 25,30.451 25,31L25,36L15,36L15,25L23,25L23,26C23,27.097 23.903,28 25,28L30,28C31.097,28 32,27.097 32,26L32,25L34,25L34,33ZM34,23L32,23L32,19L34,19C35.097,19 36,19.903 36,21C36,22.097 35.097,23 34,23Z" style="fill-rule:nonzero;"/>
        </g>
    </g>
</svg>
